# xmcd CD database file
#
# Track frame offsets:
#	150
#	16904
#	38539
#	53325
#	70836
#	91739
#	110950
#	132385
#	153102
#	173075
#	193092
#	209124
#	229936
#	230833
#	245126
#	262546
#	284327
#	302881
#	322066
#
# Disc length: 4482 seconds
#
# Revision: 0
# Processed by: cddbd v1.5.1PL2 Copyright (c) Steve Scherf et al.
# Submitted via: Feurio! 1.68 - http://www.feurio.com
#
DISCID=0d118013
DTITLE=Various Artist - Nawfel and Rick Vito
DYEAR=1900
DGENRE=Bluesrock
TTITLE0=Nawfel - Big Bird
TTITLE1=Nawfel - Why Can't We Live Together
TTITLE2=Nawfel - Jokes On You
TTITLE3=Nawfel - May This Be Love
TTITLE4=Nawfel - Go Back Home
TTITLE5=Nawfel - Rock Steady
TTITLE6=Nawfel - I Want To Take You Higher
TTITLE7=Nawfel - Dream On
TTITLE8=Nawfel - Mas Y Mas
TTITLE9=Nawfel - Summer Song
TTITLE10=Nawfel - I Get Lifted
TTITLE11=Nawfel - Hook Me Up
TTITLE12=Rick Vito - Let's Get It
TTITLE13=Rick Vito - Voodoo Woman
TTITLE14=Rick Vito - Long Black Car
TTITLE15=Rick Vito - Bad Girl Blues
TTITLE16=Rick Vito - Rhumba Diablo
TTITLE17=Rick Vito - Meet Me At Midnite
TTITLE18=Rick Vito - (edit)
EXTD=
EXTT0=
EXTT1=
EXTT2=
EXTT3=
EXTT4=
EXTT5=
EXTT6=
EXTT7=
EXTT8=
EXTT9=
EXTT10=
EXTT11=
EXTT12=
EXTT13=
EXTT14=
EXTT15=
EXTT16=
EXTT17=
EXTT18=
PLAYORDER=
